<svg width="79" height="79" viewBox="0 0 79 79" fill="none" xmlns="http://www.w3.org/2000/svg">
<circle cx="39.5" cy="39.5" r="39.5" fill="#DBECFD"/>
<path d="M24.1083 52.6521C23.8154 52.9457 23.6886 53.3653 23.7706 53.7707C23.8522 54.1766 24.1321 54.5151 24.5167 54.6735C24.9012 54.8324 25.3397 54.7904 25.6866 54.5617C26.0335 54.333 26.2431 53.9475 26.2456 53.5337C26.2486 53.0293 25.9439 52.5731 25.4749 52.3797C25.0062 52.1859 24.466 52.2936 24.1083 52.6521Z" fill="black"/>
<path d="M58.5024 52.2923C57.9397 52.4041 57.5262 52.8823 57.4995 53.4517C57.4723 54.0214 57.8392 54.5358 58.3886 54.6997C58.938 54.8635 59.5292 54.6344 59.8222 54.1441C60.1151 53.6542 60.0348 53.0287 59.6272 52.6275C59.3314 52.3368 58.91 52.2112 58.5024 52.2923Z" fill="black"/>
<path d="M69.6114 38.1953C69.1114 36.8537 69.1867 37.152 63.363 29.5012C62.432 28.2271 60.9482 27.4665 59.3636 27.4519H49.9907V21.2421C49.9907 20.9128 49.8593 20.5967 49.625 20.3639C49.3903 20.131 49.0727 20 48.7413 20H11.2499C10.5594 20 10 20.5564 10 21.2421V51.0499C10 52.038 10.395 52.9857 11.098 53.6847C11.8013 54.3833 12.755 54.7759 13.7491 54.7759H18.8728C19.2582 56.6622 20.5022 58.2645 22.2404 59.1131C23.9786 59.9623 26.0146 59.9623 27.7528 59.1131C29.491 58.2644 30.735 56.6622 31.1204 54.7759H52.6148C53.0002 56.6622 54.2442 58.2645 55.9824 59.1131C57.7206 59.9623 59.7566 59.9623 61.4948 59.1131C63.233 58.2644 64.477 56.6622 64.8624 54.7759H66.2369C67.2311 54.7759 68.1848 54.3833 68.8881 53.6847C69.5911 52.9857 69.9861 52.0379 69.9861 51.0499C69.9861 39.1023 70.1112 39.5867 69.6112 38.1953H69.6114ZM61.3633 30.9297L66.2372 37.3882H56.2396C55.5492 37.3882 54.9897 36.8318 54.9897 36.146V29.9362C59.1515 29.9362 60.3636 29.6006 61.3633 30.9297ZM52.4904 29.9362V36.146C52.4904 37.1341 52.8854 38.0818 53.5884 38.7808C54.2914 39.4794 55.245 39.872 56.2396 39.872C68.5625 39.872 67.487 39.6982 67.487 40.282V47.3239H49.9903V29.9364L52.4904 29.9362ZM52.6156 52.292H31.1201C30.9414 51.3892 30.5565 50.5397 29.9954 49.8078H53.7392C53.1781 50.5397 52.7932 51.3892 52.6145 52.292H52.6156ZM12.4997 22.4843H47.4921V47.3237H12.4997V22.4843ZM12.4997 51.0497V49.8076H19.998C19.4235 50.5357 19.026 51.3857 18.836 52.2918H13.7496C13.0596 52.2918 12.4997 51.7354 12.4997 51.0497ZM24.9972 57.2595C24.003 57.2595 23.0494 56.867 22.346 56.1683C21.6431 55.4697 21.2481 54.522 21.2481 53.5335C21.2481 52.5455 21.6431 51.5977 22.346 50.8992C23.0494 50.2001 24.0031 49.8076 24.9972 49.8076C25.9914 49.8076 26.9451 50.2001 27.6484 50.8992C28.3514 51.5978 28.7464 52.5455 28.7464 53.5335C28.7464 54.522 28.3514 55.4698 27.6484 56.1683C26.945 56.867 25.9914 57.2595 24.9972 57.2595ZM58.7395 57.2595C57.7453 57.2595 56.7917 56.867 56.0883 56.1683C55.3854 55.4697 54.9904 54.522 54.9904 53.5335C54.9904 52.5455 55.3854 51.5977 56.0883 50.8992C56.7917 50.2001 57.7453 49.8076 58.7395 49.8076C59.7337 49.8076 60.6874 50.2001 61.3907 50.8992C62.0937 51.5978 62.4887 52.5455 62.4887 53.5335C62.4887 54.522 62.0937 55.4698 61.3907 56.1683C60.6873 56.867 59.7337 57.2595 58.7395 57.2595ZM66.2378 52.2914L64.8633 52.2918C64.6846 51.389 64.2996 50.5394 63.7385 49.8076H67.4877V51.0497C67.4877 51.379 67.3559 51.6951 67.1215 51.928C66.8872 52.1608 66.5692 52.2918 66.2378 52.2918V52.2914Z" fill="black"/>
<path d="M54.9901 44.8403H56.2399C56.9299 44.8403 57.4894 44.2839 57.4894 43.5982C57.4894 42.9125 56.9299 42.356 56.2399 42.356H54.9901C54.3001 42.356 53.7402 42.9125 53.7402 43.5982C53.7402 44.2839 54.3001 44.8403 54.9901 44.8403Z" fill="black"/>
<path d="M41.2431 42.3556V27.4517C41.2431 27.1224 41.1113 26.8068 40.877 26.5735C40.6427 26.3406 40.3247 26.21 39.9933 26.21H19.9975C19.3075 26.21 18.748 26.766 18.748 27.4517V42.3556C18.748 42.685 18.8794 43.001 19.1138 43.2339C19.3485 43.4668 19.6661 43.5977 19.9975 43.5977H39.9933C40.3247 43.5977 40.6427 43.4668 40.877 43.2339C41.1113 43.001 41.2431 42.685 41.2431 42.3556ZM32.495 28.6941V31.9356C29.5082 30.9546 30.4953 30.9421 27.496 31.9356V28.6941H32.495ZM38.7434 41.1143H21.2478V28.6941H24.9969V33.6622C24.9961 34.0626 25.1894 34.4394 25.5166 34.6735C25.8438 34.9072 26.2648 34.97 26.6464 34.8419L29.9955 33.7241C33.5572 34.9039 33.807 35.1526 34.4694 34.6681C35.1322 34.1837 34.9946 33.9724 34.9946 28.6941H38.7437L38.7434 41.1143Z" fill="black"/>
</svg>
