<svg width="79" height="79" viewBox="0 0 79 79" fill="none" xmlns="http://www.w3.org/2000/svg">
<circle cx="39.5" cy="39.5" r="39.5" fill="#DBECFD"/>
<path d="M38.7194 20.6794C34.7744 20.6794 30.9913 22.2615 28.2023 25.0782C25.4127 27.8946 23.8457 31.7148 23.8457 35.6976C23.8457 39.6808 25.4127 43.5007 28.2023 46.3178C30.9915 49.1341 34.7746 50.7167 38.7194 50.7167C42.6641 50.7167 46.4474 49.1341 49.2365 46.3178C52.0261 43.5011 53.593 39.6812 53.593 35.6976C53.593 31.7146 52.0261 27.8944 49.2365 25.0782C46.4472 22.2615 42.6641 20.6794 38.7194 20.6794ZM38.7194 48.5706C35.3382 48.5706 32.0955 47.2143 29.7043 44.8002C27.3135 42.3862 25.9703 39.1119 25.9703 35.6976C25.9703 32.2835 27.3135 29.0093 29.7043 26.5952C32.0955 24.1808 35.3382 22.8245 38.7194 22.8245C42.1005 22.8245 45.3432 24.1808 47.7344 26.5952C50.1253 29.0093 51.4685 32.2835 51.4685 35.6976C51.4685 39.1119 50.1253 42.3862 47.7344 44.8002C45.3432 47.2143 42.1005 48.5706 38.7194 48.5706Z" fill="black"/>
<path d="M58.6604 32.769C58.3794 32.5125 58.1884 32.1713 58.1154 31.7959C58.0429 31.421 58.0923 31.032 58.2567 30.6878C58.7287 29.6872 58.7575 28.5317 58.336 27.5084C57.9144 26.4851 57.082 25.6913 56.0469 25.3238C55.6872 25.2017 55.3774 24.9629 55.1661 24.645C54.9548 24.3268 54.8534 23.9471 54.878 23.5646C54.9416 22.4213 54.5087 21.3064 53.6927 20.5112C52.8763 19.716 51.7579 19.3191 50.6285 19.424C50.2675 19.4251 49.9156 19.3119 49.6218 19.1C49.3283 18.8884 49.1081 18.5889 48.9921 18.2437C48.6286 17.1982 47.8421 16.358 46.8286 15.9324C45.8155 15.5067 44.6708 15.5358 43.6801 16.0125C41.6827 16.9352 41.6084 14.2424 38.7186 14.2424C37.6105 14.2485 36.5569 14.728 35.8179 15.5621C35.5604 15.8397 35.2228 16.0287 34.8528 16.1019C34.4829 16.1749 34.0994 16.1289 33.7569 15.9698C32.7665 15.4895 31.6204 15.4583 30.6062 15.8846C29.5916 16.3106 28.8056 17.1533 28.4449 18.201C28.3204 18.5637 28.0817 18.8755 27.7651 19.0888C27.4485 19.3018 27.0714 19.4046 26.6919 19.3809C25.5592 19.3169 24.4554 19.7537 23.6679 20.5781C22.8803 21.402 22.4872 22.5316 22.5908 23.672C22.5922 24.0362 22.4801 24.3918 22.2703 24.6881C22.0607 24.9845 21.7641 25.2071 21.4222 25.3239C20.3888 25.6938 19.5589 26.4883 19.1378 27.5105C18.7169 28.5324 18.744 29.6868 19.2125 30.6879C19.391 31.0406 19.4476 31.444 19.3725 31.8329C19.2971 32.2219 19.0951 32.5739 18.798 32.8333C17.9724 33.576 17.5 34.6399 17.5 35.7566C17.5 36.8734 17.9724 37.9369 18.798 38.6796C19.0787 38.9361 19.2701 39.2773 19.3427 39.6526C19.4156 40.0276 19.3661 40.4166 19.2018 40.7607C18.7262 41.7607 18.6956 42.918 19.1175 43.9424C19.5394 44.9664 20.3739 45.7602 21.4115 46.1247C21.7711 46.2504 22.0799 46.4915 22.2908 46.8111C22.5018 47.1308 22.6035 47.5112 22.5804 47.8948C22.5285 48.7801 22.7785 49.6569 23.2886 50.3792C23.7991 51.1012 24.539 51.6253 25.385 51.8638C20.381 60.6281 20.3704 60.242 20.8591 60.9823C21.3479 61.7226 21.6773 61.4758 26.3518 60.9072C28.1791 65.2626 28.1475 65.7346 29.0186 65.7346C29.8898 65.7346 29.7091 65.7346 35.4996 55.5759H35.4992C35.618 55.6535 35.7286 55.7433 35.8286 55.8443C36.5646 56.6779 37.6178 57.1549 38.7238 57.1549C39.8298 57.1549 40.8831 56.6779 41.6191 55.8443C41.7162 55.7476 41.8229 55.6611 41.9378 55.5867C47.8766 65.9817 47.5262 65.8097 48.4187 65.7454C49.3112 65.6811 49.2579 65.2842 51.1066 60.8965C55.7495 61.4651 56.1212 61.7118 56.5993 60.9715C57.0774 60.2313 56.833 60.1885 52.0734 51.8638H52.0731C52.9361 51.6142 53.687 51.0707 54.1982 50.3257C54.7093 49.5808 54.9495 48.6803 54.878 47.7766C54.8769 47.4124 54.9889 47.0568 55.1985 46.7605C55.4083 46.4641 55.705 46.2415 56.0469 46.1247C57.0799 45.7548 57.9098 44.9603 58.3309 43.9381C58.7521 42.9162 58.7251 41.7618 58.2566 40.7607C58.0958 40.4159 58.0481 40.0276 58.1207 39.6534C58.1933 39.2791 58.3822 38.9379 58.6603 38.6796C59.5109 37.9379 60 36.8593 60 35.7242C60 34.5892 59.5109 33.5107 58.6604 32.769ZM29.22 62.2693C27.35 57.8604 28.3488 58.4824 23.7059 59.051C28.0194 51.5417 27.5519 52.2177 27.6793 52.2927H27.6797C28.0158 52.5 28.2713 52.8186 28.4018 53.1939C28.7181 54.1116 29.3605 54.8777 30.205 55.3436C31.0491 55.8095 32.0349 55.9416 32.9704 55.715L29.22 62.2693ZM48.2161 62.2693L44.4657 55.7146V55.715C45.3999 55.9413 46.3837 55.8087 47.2265 55.3425C48.0688 54.8767 48.7094 54.1106 49.0235 53.1939C49.1804 52.7906 49.4689 52.454 49.8413 52.2392L53.7297 59.0511C49.0445 58.4717 50.0541 57.9139 48.216 62.2693L48.2161 62.2693ZM57.2575 37.017H57.2572C56.6276 37.5846 56.1975 38.3439 56.0328 39.1797C55.8678 40.0159 55.977 40.8833 56.3437 41.6512C56.5625 42.1027 56.5781 42.6275 56.3871 43.0915C56.1961 43.5556 55.8162 43.9141 55.3449 44.0757C54.5353 44.3655 53.8423 44.9165 53.3738 45.6439C52.9053 46.3709 52.6869 47.2336 52.7527 48.0985C52.7513 48.5963 52.5439 49.0708 52.1807 49.407C51.8175 49.7431 51.3312 49.9105 50.8403 49.8685C50.0093 49.8347 49.1894 50.0704 48.501 50.5416C47.8127 51.0125 47.292 51.6942 47.0156 52.4862C46.8498 52.9574 46.4941 53.3363 46.0366 53.5285C45.5792 53.7207 45.0623 53.7081 44.6145 53.4944C43.8553 53.1309 43.0001 53.0231 42.176 53.1873C41.3514 53.3514 40.6012 53.7789 40.0352 54.4064C39.6927 54.7677 39.2189 54.9721 38.7234 54.9721C38.2279 54.9721 37.754 54.7677 37.4111 54.4064C36.8491 53.7702 36.0974 53.3363 35.2693 53.1697C34.4411 53.0034 33.5821 53.1137 32.8215 53.4837C32.3726 53.7013 31.8529 53.7157 31.3926 53.5232C30.9327 53.3306 30.5752 52.9499 30.4098 52.4754C30.128 51.6565 29.5848 50.955 28.8659 50.4815C28.1467 50.0078 27.2922 49.7883 26.4363 49.8576C25.9436 49.8566 25.4738 49.6472 25.1407 49.2804C24.8074 48.9134 24.6417 48.4227 24.6833 47.9267C24.7189 47.0873 24.4859 46.259 24.0191 45.5633C23.5521 44.8679 22.8762 44.3428 22.0911 44.0648C21.6173 43.9064 21.2352 43.5479 21.0439 43.0827C20.8521 42.6176 20.8699 42.0914 21.0922 41.6402C21.4558 40.8745 21.5643 40.0102 21.4017 39.177C21.2388 38.3437 20.8137 37.5861 20.1895 37.0169C19.8138 36.6811 19.599 36.1987 19.599 35.6919C19.599 35.1854 19.8138 34.7031 20.1895 34.3672C20.8162 33.7976 21.2438 33.0387 21.4085 32.2032C21.5732 31.3681 21.4662 30.5014 21.103 29.7328C20.8807 29.282 20.8629 28.7558 21.0542 28.2906C21.246 27.8255 21.628 27.467 22.1019 27.3086C22.9115 27.0188 23.6041 26.4678 24.073 25.7404C24.5414 25.0134 24.7599 24.1507 24.6941 23.2858C24.6919 22.7869 24.8982 22.3107 25.2625 21.9734C25.6264 21.6365 26.1145 21.4702 26.6064 21.5158C27.4378 21.5514 28.2584 21.3161 28.9471 20.8448C29.6357 20.3736 30.1562 19.6911 30.4312 18.8981C30.5969 18.4265 30.9527 18.0479 31.4101 17.8557C31.8676 17.6636 32.3841 17.6758 32.8323 17.8899C33.5907 18.2569 34.4466 18.3665 35.2718 18.202C36.0971 18.0378 36.8477 17.6083 37.4111 16.9779C37.754 16.6166 38.2279 16.4122 38.7234 16.4122C39.2189 16.4122 39.6928 16.6166 40.0353 16.9779C40.5994 17.6108 41.3514 18.0429 42.1785 18.2092C43.0055 18.3756 43.8639 18.2671 44.6251 17.9007C45.0726 17.683 45.5909 17.669 46.0495 17.8616C46.508 18.0541 46.8634 18.4352 47.0263 18.909C47.3134 19.7268 47.8591 20.4261 48.5791 20.8992C49.2994 21.3723 50.1539 21.5928 51.0104 21.5263C51.5031 21.5278 51.973 21.7372 52.306 22.1039C52.639 22.4706 52.8051 22.9616 52.7635 23.4573C52.7279 24.2967 52.9609 25.1254 53.4276 25.8207C53.8947 26.5161 54.5706 27.0415 55.3556 27.3192C55.8294 27.478 56.2115 27.8364 56.4029 28.3016C56.5946 28.7667 56.5768 29.2929 56.3545 29.7438C55.9909 30.5099 55.8824 31.3738 56.045 32.207C56.2079 33.0403 56.633 33.7982 57.2573 34.3675C57.6329 34.7033 57.8478 35.1857 57.8478 35.6921C57.8478 36.1989 57.6329 36.6813 57.2573 37.0171L57.2575 37.017Z" fill="black"/>
<path d="M42.0545 31.5138C39.526 26.3539 39.6004 26.0428 38.7185 26.0428C37.8367 26.0428 37.911 26.3431 35.3825 31.5138C29.7518 32.3399 29.4861 32.1682 29.2097 33.0155C28.9333 33.8628 29.2097 33.8952 33.3319 37.9072C32.365 43.5715 32.1313 43.7859 32.8431 44.3437C33.5549 44.9015 33.6719 44.5797 38.7182 41.8976C43.8499 44.6224 43.6055 44.5473 43.9666 44.5473L43.967 44.5476C44.2832 44.5523 44.5848 44.4147 44.7901 44.1719C44.9953 43.9295 45.0832 43.6073 45.0295 43.2927L44.1157 37.929L47.9724 34.1422C48.2652 33.8566 48.3705 33.4274 48.2439 33.0366C48.1172 32.6462 47.7807 32.3632 47.3773 32.3075L42.0545 31.5138ZM42.2246 36.7704C41.6935 37.2959 41.8952 37.5322 42.5646 41.4796C38.8569 39.5163 39.0693 39.5811 38.7186 39.5811C38.3679 39.5811 38.5806 39.5168 34.8725 41.4796C35.5523 37.5103 35.7437 37.2852 35.2126 36.7704L32.5034 34.0992L36.2431 33.5521C36.9869 33.4447 36.9656 33.1337 38.7186 29.5401C40.4929 33.166 40.461 33.4447 41.1941 33.5521L44.9338 34.0992L42.2246 36.7704Z" fill="black"/>
</svg>
