<svg width="79" height="79" viewBox="0 0 79 79" fill="none" xmlns="http://www.w3.org/2000/svg">
<circle cx="39.5" cy="39.5" r="39.5" fill="#DBECFD"/>
<path d="M62.0622 43.2424V20.0099C62.0622 19.7018 61.9409 19.4062 61.7247 19.1884C61.5081 18.9706 61.215 18.8481 60.9092 18.8481H28.6167C27.98 18.8481 27.4633 19.3685 27.4633 20.0099V38.9908C25.6874 38.8745 25.2835 38.9908 20.5436 39.6065V38.5961C20.5436 38.288 20.4223 37.9924 20.2061 37.7746C19.9895 37.5568 19.6964 37.4343 19.3905 37.4343H12.4708C11.8337 37.4343 11.3174 37.9543 11.3174 38.5961V58.3437C11.3174 58.6518 11.439 58.9474 11.6553 59.1652C11.8715 59.383 12.165 59.5055 12.4708 59.5055H19.3905C19.6964 59.5055 19.9895 59.383 20.2061 59.1652C20.4223 58.9474 20.5436 58.6518 20.5436 58.3437V57.1819C24.6263 57.1819 22.4925 56.6129 33.956 61.8287C35.7964 62.6703 37.8066 63.0682 39.8262 62.9904C43.8626 62.9904 44.0356 62.3864 64.1728 52.0248C65.4111 51.3858 66.297 50.2178 66.5835 48.8464C66.8701 47.4746 66.5268 46.0464 65.6495 44.9585C64.7717 43.871 63.4539 43.2404 62.0622 43.2424ZM48.2227 21.1718V25.0983C44.0478 22.9957 45.4664 23.0073 41.303 25.0983V21.1718H48.2227ZM29.7708 21.1718H38.9969V26.9799C38.9981 27.3825 39.2062 27.7559 39.5468 27.9663C39.8878 28.1771 40.3122 28.195 40.6693 28.0137L44.7632 25.9578C49.1112 28.1418 49.2495 28.4206 49.9878 27.9675C50.7257 27.5144 50.53 27.4215 50.53 21.1719H59.7561V43.8588L47.0703 50.3872C47.0904 49.7949 47.0004 49.204 46.805 48.6448C45.9169 46.217 45.2481 46.3912 32.0778 40.1417C31.3349 39.8076 30.5626 39.5431 29.7714 39.3518L29.7708 21.1718ZM18.2375 57.1822H13.6242V39.7575H18.2375V57.1822ZM63.1239 49.9568C42.941 60.3419 43.1031 60.6675 39.8271 60.6675C38.1397 60.7511 36.4568 60.4326 34.9142 59.7383C23.2426 54.4063 25.1575 54.8594 20.5439 54.8594V41.9423C30.0237 40.7805 26.8176 40.2348 43.4363 48.0988L43.4367 48.0992C43.9939 48.3629 44.4237 48.8406 44.6295 49.4255C44.8349 50.0101 44.8002 50.6534 44.5322 51.2123C44.2804 51.7751 43.8167 52.2138 43.2432 52.432C42.6702 52.6498 42.0343 52.6288 41.4758 52.374L32.3767 48.0062C31.8133 47.7834 31.175 48.0366 30.9143 48.5865C30.6533 49.1365 30.8587 49.7958 31.3847 50.0972L40.4842 54.4071V54.4067C41.2028 54.7571 42.001 54.9092 42.7969 54.8481C43.5931 54.7867 44.3589 54.5144 45.0164 54.0582L61.001 45.8223H61.0014C61.7347 45.4404 62.6147 45.4816 63.3094 45.9304C64.0045 46.3792 64.4092 47.1677 64.3705 47.9985C64.3323 48.8289 63.8566 49.5761 63.1233 49.9576L63.1239 49.9568Z" fill="black"/>
<path d="M51.6833 42.0814H56.2966C56.9333 42.0814 57.45 41.561 57.45 40.9197C57.45 40.2783 56.9333 39.7579 56.2966 39.7579H51.6833C51.0465 39.7579 50.5303 40.2783 50.5303 40.9197C50.5303 41.561 51.0466 42.0814 51.6833 42.0814Z" fill="black"/>
</svg>
