<svg width="79" height="79" viewBox="0 0 79 79" fill="none" xmlns="http://www.w3.org/2000/svg">
<circle cx="39.5" cy="39.5" r="39.5" fill="#DBECFD"/>
<path d="M61.8191 18.4051H16.1807C15.6326 18.4051 15.1885 18.8484 15.1885 19.3956V29.2987C15.1885 29.5613 15.2931 29.8133 15.4791 29.999C15.6652 30.1847 15.9176 30.2892 16.1807 30.2892H17.1727V59.0095C17.1727 59.2722 17.2773 59.5242 17.4633 59.7099C17.6494 59.8956 17.9018 60 18.1649 60H59.8352C60.0983 60 60.3508 59.8956 60.5368 59.7099C60.7228 59.5242 60.8275 59.2722 60.8275 59.0095V30.2892H61.8197H61.8194C62.0825 30.2892 62.335 30.1847 62.521 29.999C62.707 29.8133 62.8117 29.5613 62.8117 29.2987V19.3956C62.8117 19.1329 62.707 18.8809 62.521 18.6952C62.335 18.5095 62.0825 18.4051 61.8194 18.4051H61.8191ZM43.9604 20.3857V33.6368C42.7398 33.0327 43.0279 33.1119 40.9839 34.1319C38.6721 32.9829 39.3369 32.9733 37.0152 34.1319C34.9317 33.1414 35.2094 33.0525 34.0388 33.6368L34.0391 20.3857H43.9604ZM17.1723 20.3857H32.0546V28.3085L17.1723 28.3089V20.3857ZM58.8426 58.0203H19.1572V30.2897H32.0546V35.2414C32.0546 35.504 32.1592 35.756 32.3452 35.9417C32.5313 36.1274 32.7837 36.2319 33.0468 36.2319C33.3644 36.2319 33.3744 36.1825 35.031 35.3604C37.3527 36.5094 36.688 36.5094 38.9997 35.3604C41.361 36.5389 40.6667 36.5094 42.9684 35.3604C44.6354 36.1924 44.8932 36.4398 45.4785 36.0833C46.0638 35.7268 45.9449 35.6078 45.9449 30.2896H58.8423L58.8426 58.0203ZM60.8268 28.3092H45.9445V20.3861H60.8268V28.3092Z" fill="black"/>
<path d="M38.0077 42.1739H22.1339C21.5857 42.1739 21.1416 42.6172 21.1416 43.1644V55.0488C21.1416 55.3114 21.2462 55.5631 21.4323 55.7491C21.6183 55.9348 21.8708 56.0389 22.1339 56.0389H38.0077C38.2708 56.0389 38.5233 55.9348 38.7093 55.7491C38.8953 55.5631 39 55.3114 39 55.0488V43.1644C39 42.9017 38.8953 42.6497 38.7093 42.464C38.5233 42.2783 38.2708 42.1739 38.0077 42.1739ZM37.0158 54.0583H23.1251V44.1543H37.0158V54.0583Z" fill="black"/>
<path d="M26.1023 52.0779H34.0397C34.5875 52.0779 35.0316 51.6342 35.0316 51.0874C35.0316 50.5406 34.5875 50.0969 34.0397 50.0969H26.1023C25.5545 50.0969 25.1104 50.5406 25.1104 51.0874C25.1104 51.6342 25.5545 52.0779 26.1023 52.0779Z" fill="black"/>
<path d="M26.1023 48.1162H34.0397C34.5875 48.1162 35.0316 47.6728 35.0316 47.1257C35.0316 46.5789 34.5875 46.1356 34.0397 46.1356H26.1023C25.5545 46.1356 25.1104 46.5789 25.1104 47.1257C25.1104 47.6728 25.5545 48.1162 26.1023 48.1162Z" fill="black"/>
<path d="M49.9129 50.9488V54.0585H48.921C48.3729 54.0585 47.9288 54.5019 47.9288 55.049C47.9288 55.5958 48.3729 56.0392 48.921 56.0392H52.8897H52.8894C53.4375 56.0392 53.8817 55.5958 53.8817 55.049C53.8817 54.5019 53.4375 54.0585 52.8894 54.0585H51.8975V50.9488C52.7472 50.7296 53.5003 50.2359 54.0388 49.5442C54.5773 48.8525 54.871 48.0019 54.8739 47.1259V43.1646C54.8739 42.902 54.7693 42.65 54.5833 42.4643C54.3973 42.2786 54.1448 42.1741 53.8817 42.1741H47.9288C47.381 42.1741 46.9365 42.6175 46.9365 43.1646V47.1262V47.1259C46.9395 48.0019 47.2332 48.8525 47.7717 49.5442C48.3101 50.2359 49.0632 50.7296 49.9129 50.9488ZM48.921 44.1548H52.8897V47.1259H52.8894C52.8894 47.8335 52.5114 48.4874 51.8975 48.8412C51.2836 49.195 50.5269 49.195 49.9129 48.8412C49.299 48.4874 48.921 47.8335 48.921 47.1259L48.921 44.1548Z" fill="black"/>
</svg>
