<svg width="79" height="79" viewBox="0 0 79 79" fill="none" xmlns="http://www.w3.org/2000/svg">
<circle cx="39.5" cy="39.5" r="39.5" fill="#DBECFD"/>
<path d="M49.7845 29.9377L39.31 40.4844C38.8993 40.8979 38.8993 41.5684 39.31 41.9819C39.7206 42.3954 40.3866 42.3954 40.7972 41.9819L51.2718 31.4353C51.6825 31.0218 51.6825 30.3512 51.2718 29.9377C50.8611 29.5243 50.1952 29.5243 49.7845 29.9377Z" fill="black"/>
<path d="M42.1491 34.905C42.9824 34.905 43.7817 34.5717 44.3712 33.9784C44.9603 33.3852 45.2914 32.5804 45.2914 31.7411C45.2914 30.9021 44.9603 30.0973 44.3712 29.5041C43.7816 28.9106 42.9824 28.5772 42.1491 28.5772C41.3159 28.5772 40.5166 28.9105 39.9271 29.5041C39.3379 30.0974 39.0068 30.9021 39.0068 31.7411C39.0068 32.5805 39.3379 33.3852 39.9271 33.9784C40.5166 34.5717 41.3159 34.905 42.1491 34.905ZM42.1491 30.6867C42.7274 30.6867 43.1967 31.1588 43.1967 31.7411C43.1967 32.3237 42.7274 32.7959 42.1491 32.7959C41.5708 32.7959 41.1016 32.3237 41.1016 31.7411C41.1016 31.1588 41.5708 30.6867 42.1491 30.6867Z" fill="black"/>
<path d="M48.4333 37.0149C47.6 37.0149 46.8007 37.3482 46.2113 37.9415C45.6221 38.5347 45.291 39.3395 45.291 40.1788C45.291 41.0178 45.6221 41.8226 46.2113 42.4158C46.8008 43.0093 47.6001 43.3427 48.4333 43.3427C49.2665 43.3427 50.0658 43.0093 50.6553 42.4158C51.2445 41.8225 51.5756 41.0178 51.5756 40.1788C51.5756 39.3394 51.2445 38.5346 50.6553 37.9415C50.0658 37.3482 49.2665 37.0149 48.4333 37.0149ZM48.4333 41.2332C47.855 41.2332 47.3857 40.7611 47.3857 40.1788C47.3857 39.5962 47.855 39.124 48.4333 39.124C49.0116 39.124 49.4808 39.5962 49.4808 40.1788C49.4808 40.7611 49.0116 41.2332 48.4333 41.2332Z" fill="black"/>
<path d="M63.9563 48.0036L60.0494 42.4773C61.3379 40.5497 62.0337 38.2827 62.0502 35.9595C62.0502 22.249 40.1063 17.0602 31.1301 28.6507C19.106 29.6317 12.2244 40.3572 18.0583 48.953C13.8684 54.6586 13.5226 54.6795 14.0256 55.5022C14.5285 56.3249 14.7796 56.04 24.5001 54.2578C32.2931 57.8331 42.1382 55.7236 46.8731 49.5964C49.246 49.4237 51.5672 48.8163 53.7234 47.8032C63.5794 49.786 62.9401 49.6701 63.0972 49.6701C63.4904 49.6722 63.8516 49.4526 64.0326 49.1013C64.2139 48.7499 64.1844 48.3262 63.9561 48.0037L63.9563 48.0036ZM25.1177 52.2222C24.6881 52.0114 25.0128 52.0322 17.3564 53.4352L20.2054 49.6067V49.6063C20.4902 49.2295 20.4902 48.7076 20.2054 48.3305C14.8531 41.3911 20.0378 32.5743 29.7158 30.9608C25.453 39.7667 33.1095 48.9525 44.0445 49.6693C39.3311 54.162 31.2761 55.1637 25.1173 52.211L25.1177 52.2222ZM53.8283 45.6621C53.0532 45.5145 50.5289 47.5604 45.2919 47.5604C37.2058 47.5604 30.6282 42.3612 30.6282 35.9598C30.6282 29.5584 37.206 24.3591 45.2919 24.3591C56.5933 24.3591 63.6634 34.1039 57.9346 41.8446C57.6656 42.2151 57.6656 42.7182 57.9346 43.089L60.7416 47.0545L53.8283 45.6621Z" fill="black"/>
</svg>
