<svg width="79" height="79" viewBox="0 0 79 79" fill="none" xmlns="http://www.w3.org/2000/svg">
<circle cx="39.5" cy="39.5" r="39.5" fill="#DBECFD"/>
<path d="M59.5123 52.2695H57.5488V37.6779C57.5488 37.42 57.4452 37.1724 57.2611 36.99C57.077 36.8076 56.8272 36.705 56.5668 36.705H55.5848V26.0048C55.5848 25.7469 55.4816 25.4993 55.2975 25.317C55.1131 25.1346 54.8636 25.032 54.6032 25.032H38.8934C38.3513 25.032 37.9114 25.4678 37.9114 26.0048V36.705H36.9298C36.3874 36.705 35.9478 37.1408 35.9478 37.6779V52.2695H34.8581C34.316 51.7444 33.6887 51.3138 33.0023 50.995V22.1137C33.0023 21.3399 32.692 20.5975 32.1397 20.0504C31.5871 19.5029 30.8378 19.1954 30.0568 19.1954H25.1476C25.1476 18.6795 24.9405 18.1848 24.5723 17.82C24.2041 17.4549 23.7047 17.25 23.1837 17.25H18.2746C17.2223 17.25 16.2498 17.8063 15.7236 18.7092C15.1976 19.612 15.1976 20.7246 15.7236 21.6275C16.2499 22.5303 17.2224 23.0866 18.2746 23.0866H23.1837C23.7048 23.0866 24.2041 22.8818 24.5723 22.5166C24.9405 22.1519 25.1476 21.6571 25.1476 21.1412H27.1112V50.9955C20.4739 54.1281 22.8106 63.9436 30.0568 63.9436C31.708 63.9417 33.3034 63.3509 34.551 62.2789C35.7989 61.2073 36.6151 59.7264 36.8512 58.107H53.1888C52.7099 58.8978 52.53 59.8317 52.6813 60.7417C52.8328 61.6517 53.3055 62.479 54.0153 63.0756C54.7251 63.6723 55.6255 64 56.5565 64C57.4875 64 58.388 63.6723 59.0977 63.0756C59.8074 62.479 60.2802 61.6517 60.4317 60.7417C60.583 59.8317 60.4031 58.8979 59.9242 58.107C60.9765 58.0341 61.9098 57.4103 62.372 56.471C62.8345 55.5317 62.756 54.4191 62.1659 53.5527C61.5761 52.6863 60.5643 52.1974 59.5119 52.2704L59.5123 52.2695ZM18.2748 21.1411C17.7327 21.1411 17.2928 20.7053 17.2928 20.1682C17.2928 19.6311 17.7327 19.1953 18.2748 19.1953H23.1839V21.1411H18.2748ZM48.7123 26.9777V29.4098C46.4048 28.4369 47.1021 28.4369 44.7848 29.4098V26.9777H48.7123ZM39.8757 26.9777H42.8212V30.8689V30.8686C42.8229 31.1923 42.9866 31.4939 43.2584 31.6734C43.53 31.8529 43.8739 31.8867 44.1759 31.7636L46.7483 30.7034C49.3697 31.7929 49.6939 32.0652 50.234 31.6763C50.7741 31.2871 50.6758 30.8686 50.6758 26.9777H53.6214V36.7048H39.8758L39.8757 26.9777ZM43.8032 38.651H49.6943V42.2112H49.6939C48.7402 41.8428 47.7543 41.5627 46.7484 41.3745C45.7428 41.5627 44.7565 41.8429 43.8028 42.2112L43.8032 38.651ZM37.9121 38.651H41.8396C41.8396 45.6256 41.0542 45.0517 46.7487 43.359C50.6759 44.4876 50.4698 44.4876 50.6759 44.4876C50.9362 44.4876 51.1861 44.385 51.3702 44.2026C51.5543 44.0202 51.6578 43.7727 51.6578 43.5147V38.651H55.5853L55.585 52.2695H37.9118L37.9121 38.651ZM29.0755 21.1411H30.0574C30.3178 21.1411 30.5676 21.2434 30.7517 21.4258C30.9358 21.6085 31.0394 21.8557 31.0394 22.1137V50.4021C30.3891 50.2949 29.7258 50.2949 29.0755 50.4021V21.1411ZM30.0574 61.9974C28.7553 61.9974 27.5067 61.4848 26.5862 60.5728C25.6655 59.6605 25.1483 58.4235 25.1483 57.1334C25.1483 55.8436 25.6654 54.6062 26.5862 53.6943C27.5068 52.782 28.7553 52.2696 30.0574 52.2696C31.3596 52.2696 32.6082 52.782 33.5286 53.6943C34.4494 54.6063 34.9666 55.8436 34.9666 57.1334C34.9666 58.4235 34.4494 59.6605 33.5286 60.5728C32.6081 61.4848 31.3596 61.9974 30.0574 61.9974ZM56.5673 61.9974C56.0466 61.9974 55.5469 61.7923 55.1787 61.4275C54.8105 61.0627 54.6037 60.5679 54.6037 60.0517C54.6037 59.5358 54.8105 59.041 55.1787 58.6762C55.5469 58.3111 56.0465 58.1063 56.5673 58.1063C57.0881 58.1063 57.5877 58.3111 57.9559 58.6762C58.3241 59.041 58.5309 59.5358 58.5309 60.0517C58.5309 60.5679 58.3241 61.0627 57.9559 61.4275C57.5877 61.7923 57.0881 61.9974 56.5673 61.9974ZM60.1904 55.8787C59.7975 56.2872 61.4472 56.1608 36.8516 56.1608C36.5275 53.904 35.6734 54.2154 36.9302 54.2154L59.5124 54.215C59.9079 54.2206 60.2613 54.4606 60.4092 54.8238C60.5571 55.187 60.4706 55.6029 60.1899 55.8787L60.1904 55.8787Z" fill="black"/>
<path d="M56.1943 59.1566C55.8909 59.2798 55.6696 59.5452 55.6045 59.8634C55.5394 60.182 55.639 60.5116 55.8701 60.7422C56.0546 60.9262 56.3057 61.0298 56.5674 61.0298C56.8291 61.0298 57.0803 60.9262 57.2647 60.7422C57.5944 60.4139 57.645 59.9002 57.385 59.5149C57.125 59.1299 56.6265 58.9798 56.1943 59.1566Z" fill="black"/>
<path d="M30.0569 54.2147C29.2758 54.2147 28.5265 54.5222 27.974 55.0697C27.4217 55.6169 27.1113 56.3592 27.1113 57.133C27.1113 57.9072 27.4217 58.6496 27.974 59.1967C28.5266 59.7439 29.2758 60.0513 30.0569 60.0513C30.8379 60.0513 31.5872 59.7439 32.1398 59.1967C32.6921 58.6495 33.0024 57.9072 33.0024 57.133C33.0024 56.3592 32.6921 55.6168 32.1398 55.0697C31.5872 54.5222 30.8379 54.2147 30.0569 54.2147ZM30.0569 58.1059C29.5148 58.1059 29.0749 57.6704 29.0749 57.133C29.0749 56.5959 29.5148 56.1605 30.0569 56.1605C30.599 56.1605 31.0388 56.596 31.0388 57.133C31.0388 57.6704 30.599 58.1059 30.0569 58.1059Z" fill="black"/>
<path d="M42.8205 48.3781H40.8566C40.3145 48.3781 39.875 48.8139 39.875 49.351C39.875 49.8881 40.3145 50.3239 40.8566 50.3239H42.8205C43.3626 50.3239 43.8022 49.8881 43.8022 49.351C43.8022 48.8139 43.3626 48.3781 42.8205 48.3781Z" fill="black"/>
</svg>
